<?xml version="1.0" encoding="UTF-8"?>
<svg xmlns="http://www.w3.org/2000/svg" xmlns:xlink="http://www.w3.org/1999/xlink" width="50px" height="50px" viewBox="0 0 50 49" version="1.1">
<g id="surface1">
<path style=" stroke:none;fill-rule:nonzero;fill:rgb(0.392157%,43.529412%,81.568629%);fill-opacity:1;" d="M 0 0 L 49.875 0 L 49.875 26.4375 L 47.40625 30.226562 L 49.875 33.597656 L 49.875 48.976562 L 0 48.976562 L 0 24.050781 L 1.542969 22.308594 L 0 20.644531 Z M 0 0 "/>
<path style=" stroke:none;fill-rule:nonzero;fill:rgb(100%,100%,100%);fill-opacity:1;" d="M 9.683594 34.128906 L 9.683594 26.4375 L 17.972656 26.4375 L 18.863281 27.578125 L 19.78125 26.4375 L 49.875 26.4375 L 49.875 33.597656 C 49.875 33.597656 49.089844 34.121094 48.179688 34.128906 L 31.515625 34.128906 L 30.511719 32.914062 L 30.511719 34.128906 L 27.226562 34.128906 L 27.226562 32.058594 C 27.226562 32.058594 26.777344 32.347656 25.804688 32.347656 L 24.6875 32.347656 L 24.6875 34.128906 L 19.710938 34.128906 L 18.824219 32.964844 L 17.921875 34.128906 Z M 9.683594 34.128906 "/>
<path style=" stroke:none;fill-rule:nonzero;fill:rgb(100%,100%,100%);fill-opacity:1;" d="M 0 20.644531 L 1.871094 16.363281 L 5.101562 16.363281 L 6.164062 18.761719 L 6.164062 16.363281 L 10.183594 16.363281 L 10.816406 18.097656 L 11.425781 16.363281 L 29.46875 16.363281 L 29.46875 17.234375 C 29.46875 17.234375 30.417969 16.363281 31.976562 16.363281 L 37.832031 16.382812 L 38.875 18.75 L 38.875 16.363281 L 42.238281 16.363281 L 43.164062 17.722656 L 43.164062 16.363281 L 46.558594 16.363281 L 46.558594 24.050781 L 43.164062 24.050781 L 42.277344 22.6875 L 42.277344 24.050781 L 37.335938 24.050781 L 36.839844 22.839844 L 35.507812 22.839844 L 35.019531 24.050781 L 31.667969 24.050781 C 30.328125 24.050781 29.46875 23.199219 29.46875 23.199219 L 29.46875 24.050781 L 24.417969 24.050781 L 23.414062 22.839844 L 23.414062 24.050781 L 4.625 24.050781 L 4.128906 22.839844 L 2.804688 22.839844 L 2.308594 24.050781 L 0 24.050781 Z M 0 20.644531 "/>
<path style=" stroke:none;fill-rule:nonzero;fill:rgb(0.392157%,43.529412%,81.568629%);fill-opacity:1;" d="M 2.53125 17.3125 L 0.0078125 23.070312 L 1.652344 23.070312 L 2.117188 21.914062 L 4.820312 21.914062 L 5.285156 23.070312 L 6.960938 23.070312 L 4.441406 17.3125 Z M 3.464844 18.652344 L 4.289062 20.664062 L 2.636719 20.664062 Z M 3.464844 18.652344 "/>
<path style=" stroke:none;fill-rule:nonzero;fill:rgb(0.392157%,43.529412%,81.568629%);fill-opacity:1;" d="M 7.136719 23.066406 L 7.136719 17.308594 L 9.46875 17.320312 L 10.828125 21.03125 L 12.152344 17.308594 L 14.464844 17.308594 L 14.464844 23.066406 L 13 23.066406 L 13 18.824219 L 11.445312 23.066406 L 10.160156 23.066406 L 8.601562 18.824219 L 8.601562 23.066406 Z M 7.136719 23.066406 "/>
<path style=" stroke:none;fill-rule:nonzero;fill:rgb(0.392157%,43.529412%,81.568629%);fill-opacity:1;" d="M 15.46875 23.066406 L 15.46875 17.308594 L 20.25 17.308594 L 20.25 18.597656 L 16.949219 18.597656 L 16.949219 19.582031 L 20.175781 19.582031 L 20.175781 20.796875 L 16.949219 20.796875 L 16.949219 21.816406 L 20.25 21.816406 L 20.25 23.066406 Z M 15.46875 23.066406 "/>
<path style=" stroke:none;fill-rule:nonzero;fill:rgb(0.392157%,43.529412%,81.568629%);fill-opacity:1;" d="M 21.101562 17.3125 L 21.101562 23.070312 L 22.566406 23.070312 L 22.566406 21.023438 L 23.183594 21.023438 L 24.941406 23.070312 L 26.730469 23.070312 L 24.804688 20.949219 C 25.59375 20.882812 26.410156 20.214844 26.410156 19.179688 C 26.410156 17.96875 25.441406 17.3125 24.363281 17.3125 Z M 22.566406 18.597656 L 24.242188 18.597656 C 24.644531 18.597656 24.933594 18.90625 24.933594 19.207031 C 24.933594 19.585938 24.558594 19.8125 24.261719 19.8125 L 22.566406 19.8125 Z M 22.566406 18.597656 "/>
<path style=" stroke:none;fill-rule:nonzero;fill:rgb(0.392157%,43.529412%,81.568629%);fill-opacity:1;" d="M 28.507812 23.066406 L 27.007812 23.066406 L 27.007812 17.308594 L 28.507812 17.308594 Z M 28.507812 23.066406 "/>
<path style=" stroke:none;fill-rule:nonzero;fill:rgb(0.392157%,43.529412%,81.568629%);fill-opacity:1;" d="M 32.054688 23.066406 L 31.730469 23.066406 C 30.167969 23.066406 29.21875 21.859375 29.21875 20.210938 C 29.21875 18.527344 30.15625 17.308594 32.132812 17.308594 L 33.753906 17.308594 L 33.753906 18.675781 L 32.074219 18.675781 C 31.269531 18.675781 30.703125 19.289062 30.703125 20.226562 C 30.703125 21.34375 31.351562 21.808594 32.285156 21.808594 L 32.671875 21.808594 Z M 32.054688 23.066406 "/>
<path style=" stroke:none;fill-rule:nonzero;fill:rgb(0.392157%,43.529412%,81.568629%);fill-opacity:1;" d="M 35.246094 17.3125 L 32.722656 23.070312 L 34.363281 23.070312 L 34.828125 21.914062 L 37.535156 21.914062 L 37.996094 23.070312 L 39.675781 23.070312 L 37.15625 17.3125 Z M 36.175781 18.652344 L 37 20.664062 L 35.351562 20.664062 Z M 36.175781 18.652344 "/>
<path style=" stroke:none;fill-rule:nonzero;fill:rgb(0.392157%,43.529412%,81.568629%);fill-opacity:1;" d="M 39.847656 23.066406 L 39.847656 17.308594 L 41.710938 17.308594 L 44.089844 20.925781 L 44.089844 17.308594 L 45.554688 17.308594 L 45.554688 23.066406 L 43.753906 23.066406 L 41.3125 19.355469 L 41.3125 23.066406 Z M 39.847656 23.066406 "/>
<path style=" stroke:none;fill-rule:nonzero;fill:rgb(0.392157%,43.529412%,81.568629%);fill-opacity:1;" d="M 10.683594 33.144531 L 10.683594 27.386719 L 15.46875 27.386719 L 15.46875 28.671875 L 12.167969 28.671875 L 12.167969 29.660156 L 15.390625 29.660156 L 15.390625 30.871094 L 12.167969 30.871094 L 12.167969 31.894531 L 15.46875 31.894531 L 15.46875 33.144531 Z M 10.683594 33.144531 "/>
<path style=" stroke:none;fill-rule:nonzero;fill:rgb(0.392157%,43.529412%,81.568629%);fill-opacity:1;" d="M 34.121094 33.144531 L 34.121094 27.386719 L 38.90625 27.386719 L 38.90625 28.671875 L 35.605469 28.671875 L 35.605469 29.660156 L 38.8125 29.660156 L 38.8125 30.871094 L 35.605469 30.871094 L 35.605469 31.894531 L 38.90625 31.894531 L 38.90625 33.144531 Z M 34.121094 33.144531 "/>
<path style=" stroke:none;fill-rule:nonzero;fill:rgb(0.392157%,43.529412%,81.568629%);fill-opacity:1;" d="M 15.652344 33.144531 L 17.984375 30.300781 L 15.597656 27.386719 L 17.445312 27.386719 L 18.863281 29.1875 L 20.289062 27.386719 L 22.0625 27.386719 L 19.710938 30.265625 L 22.042969 33.144531 L 20.199219 33.144531 L 18.820312 31.371094 L 17.472656 33.144531 Z M 15.652344 33.144531 "/>
<path style=" stroke:none;fill-rule:nonzero;fill:rgb(0.392157%,43.529412%,81.568629%);fill-opacity:1;" d="M 22.21875 27.386719 L 22.21875 33.144531 L 23.722656 33.144531 L 23.722656 31.324219 L 25.265625 31.324219 C 26.570312 31.324219 27.5625 30.644531 27.5625 29.324219 C 27.5625 28.226562 26.785156 27.386719 25.457031 27.386719 Z M 23.722656 28.6875 L 25.347656 28.6875 C 25.769531 28.6875 26.070312 28.941406 26.070312 29.351562 C 26.070312 29.734375 25.769531 30.015625 25.34375 30.015625 L 23.722656 30.015625 Z M 23.722656 28.6875 "/>
<path style=" stroke:none;fill-rule:nonzero;fill:rgb(0.392157%,43.529412%,81.568629%);fill-opacity:1;" d="M 28.199219 27.386719 L 28.199219 33.144531 L 29.664062 33.144531 L 29.664062 31.097656 L 30.28125 31.097656 L 32.039062 33.144531 L 33.828125 33.144531 L 31.902344 31.023438 C 32.691406 30.957031 33.507812 30.289062 33.507812 29.253906 C 33.507812 28.042969 32.539062 27.386719 31.460938 27.386719 Z M 29.664062 28.671875 L 31.339844 28.671875 C 31.742188 28.671875 32.03125 28.980469 32.03125 29.28125 C 32.03125 29.664062 31.652344 29.886719 31.359375 29.886719 L 29.664062 29.886719 Z M 29.664062 28.671875 "/>
<path style=" stroke:none;fill-rule:nonzero;fill:rgb(0.392157%,43.529412%,81.568629%);fill-opacity:1;" d="M 39.585938 33.144531 L 39.585938 31.894531 L 42.519531 31.894531 C 42.953125 31.894531 43.140625 31.664062 43.140625 31.410156 C 43.140625 31.167969 42.953125 30.921875 42.519531 30.921875 L 41.191406 30.921875 C 40.039062 30.921875 39.398438 30.234375 39.398438 29.199219 C 39.398438 28.277344 39.984375 27.386719 41.699219 27.386719 L 44.550781 27.386719 L 43.933594 28.679688 L 41.464844 28.679688 C 40.996094 28.679688 40.847656 28.925781 40.847656 29.15625 C 40.847656 29.394531 41.027344 29.660156 41.390625 29.660156 L 42.777344 29.660156 C 44.0625 29.660156 44.621094 30.375 44.621094 31.3125 C 44.621094 32.316406 44 33.144531 42.707031 33.144531 Z M 39.585938 33.144531 "/>
<path style=" stroke:none;fill-rule:nonzero;fill:rgb(0.392157%,43.529412%,81.568629%);fill-opacity:1;" d="M 44.964844 33.144531 L 44.964844 31.894531 L 47.898438 31.894531 C 48.332031 31.894531 48.519531 31.664062 48.519531 31.410156 C 48.519531 31.167969 48.332031 30.921875 47.898438 30.921875 L 46.570312 30.921875 C 45.417969 30.921875 44.777344 30.234375 44.777344 29.199219 C 44.777344 28.277344 45.367188 27.386719 47.078125 27.386719 L 49.933594 27.386719 L 49.316406 28.679688 L 46.847656 28.679688 C 46.375 28.679688 46.230469 28.925781 46.230469 29.15625 C 46.230469 29.394531 46.410156 29.660156 46.769531 29.660156 L 48.15625 29.660156 C 49.441406 29.660156 50 30.375 50 31.3125 C 50 32.316406 49.378906 33.144531 48.089844 33.144531 Z M 44.964844 33.144531 "/>
</g>
</svg>
