<?xml version="1.0" encoding="UTF-8"?>
<svg xmlns="http://www.w3.org/2000/svg" xmlns:xlink="http://www.w3.org/1999/xlink" width="102px" height="40px" viewBox="0 0 102 40" version="1.1">
<g id="surface1">
<path style=" stroke:none;fill-rule:evenodd;fill:rgb(100%,79.215688%,1.960784%);fill-opacity:1;" d="M 15.921875 8.515625 C 17.105469 8.128906 18.34375 7.933594 19.589844 7.9375 C 25.1875 7.9375 29.855469 11.832031 30.925781 17.011719 L 38.855469 15.425781 C 37.035156 6.621094 29.105469 0 19.589844 0 C 17.410156 0 15.316406 0.347656 13.355469 0.992188 Z M 15.921875 8.515625 "/>
<path style=" stroke:none;fill-rule:evenodd;fill:rgb(0%,64.313728%,87.450981%);fill-opacity:1;" d="M 6.714844 34.023438 L 12.144531 28.019531 C 9.71875 25.917969 8.191406 22.855469 8.191406 19.441406 C 8.191406 16.027344 9.71875 12.960938 12.140625 10.863281 L 6.710938 4.859375 C 2.597656 8.425781 0 13.636719 0 19.441406 C 0 25.242188 2.597656 30.457031 6.714844 34.023438 "/>
<path style=" stroke:none;fill-rule:evenodd;fill:rgb(93.333334%,25.490198%,13.725491%);fill-opacity:1;" d="M 30.929688 21.871094 C 29.855469 27.050781 25.1875 30.945312 19.597656 30.945312 C 18.351562 30.945312 17.109375 30.75 15.925781 30.359375 L 13.355469 37.894531 C 15.316406 38.535156 17.414062 38.882812 19.597656 38.882812 C 29.097656 38.882812 37.03125 32.265625 38.855469 23.46875 Z M 30.929688 21.871094 "/>
<path style=" stroke:none;fill-rule:evenodd;fill:rgb(0%,0%,0%);fill-opacity:1;" d="M 61.304688 25.828125 L 61.300781 25.832031 L 61.074219 25.679688 C 60.425781 26.734375 59.421875 27.589844 58.144531 28.144531 C 55.722656 29.203125 53.480469 28.929688 51.867188 27.511719 L 51.722656 27.738281 C 51.71875 27.734375 51.71875 27.730469 51.714844 27.730469 L 48.96875 31.863281 C 49.652344 32.34375 50.382812 32.746094 51.152344 33.066406 C 54.1875 34.335938 57.292969 34.277344 60.355469 32.9375 C 62.570312 31.976562 64.304688 30.503906 65.492188 28.640625 Z M 52.722656 15.628906 C 50.167969 16.734375 48.847656 19.144531 49.121094 21.972656 L 59.953125 17.285156 C 58.089844 15.085938 55.667969 14.355469 52.722656 15.628906 Z M 45.53125 28.21875 C 45.226562 27.707031 44.949219 27.175781 44.710938 26.628906 C 43.460938 23.714844 43.402344 20.695312 44.457031 17.796875 C 45.617188 14.621094 47.832031 12.1875 50.699219 10.949219 C 54.300781 9.390625 58.28125 9.695312 61.734375 11.757812 C 63.925781 13.019531 65.480469 14.972656 66.660156 17.730469 C 66.8125 18.085938 66.945312 18.464844 67.074219 18.785156 Z M 74.601562 4.859375 L 74.601562 27.839844 L 78.15625 29.285156 L 76.136719 34.023438 L 72.214844 32.382812 C 71.332031 31.996094 70.734375 31.410156 70.28125 30.75 C 69.847656 30.074219 69.523438 29.148438 69.523438 27.902344 L 69.523438 4.859375 Z M 83.808594 21.984375 C 83.804688 23.859375 84.609375 25.644531 86.015625 26.882812 L 82.375 30.976562 C 79.808594 28.691406 78.34375 25.414062 78.351562 21.980469 C 78.347656 18.542969 79.816406 15.273438 82.386719 12.996094 L 86.03125 17.082031 C 84.617188 18.320312 83.808594 20.105469 83.808594 21.984375 Z M 90.289062 28.507812 C 93.417969 28.507812 96.03125 26.277344 96.640625 23.3125 L 101.996094 24.410156 C 100.878906 29.882812 96.054688 34 90.28125 33.996094 C 88.992188 33.996094 87.714844 33.785156 86.492188 33.375 L 88.234375 28.167969 C 88.878906 28.386719 89.570312 28.503906 90.289062 28.507812 Z M 90.304688 9.984375 C 96.082031 9.988281 100.898438 14.121094 102 19.605469 L 96.644531 20.695312 C 96.042969 17.664062 93.386719 15.480469 90.300781 15.472656 C 89.601562 15.472656 88.90625 15.585938 88.242188 15.808594 L 86.519531 10.597656 C 87.738281 10.1875 89.015625 9.980469 90.304688 9.984375 Z M 90.304688 9.984375 "/>
</g>
</svg>
