<?xml version="1.0" encoding="UTF-8"?>
<svg xmlns="http://www.w3.org/2000/svg" xmlns:xlink="http://www.w3.org/1999/xlink" width="65px" height="40px" viewBox="0 0 64 40" version="1.1">
<g id="surface1">
<path style=" stroke:none;fill-rule:nonzero;fill:rgb(92.156863%,0%,10.588235%);fill-opacity:1;" d="M 19.710938 0 C 8.800781 0.0351562 -0.0195312 9 0 20.03125 C 0.0195312 31.066406 8.867188 40 19.777344 40 C 30.683594 40 39.535156 31.066406 39.550781 20.03125 C 39.570312 9 30.75 0.0351562 19.839844 0 Z M 19.710938 0 "/>
<path style=" stroke:none;fill-rule:nonzero;fill:rgb(96.862745%,61.960787%,10.588235%);fill-opacity:1;" d="M 44.160156 0 C 33.25 0.0351562 24.429688 9 24.449219 20.03125 C 24.464844 31.066406 33.316406 40 44.222656 40 C 55.132812 40 63.980469 31.066406 64 20.03125 C 64.019531 9 55.199219 0.0351562 44.289062 0 Z M 44.160156 0 "/>
<path style=" stroke:none;fill-rule:nonzero;fill:rgb(100%,37.254903%,0%);fill-opacity:1;" d="M 32 4.273438 C 27.226562 8.0625 24.441406 13.863281 24.441406 20 C 24.441406 26.136719 27.226562 31.9375 32 35.726562 C 36.773438 31.9375 39.558594 26.136719 39.558594 20 C 39.558594 13.863281 36.773438 8.0625 32 4.273438 "/>
</g>
</svg>
