<?xml version="1.0" encoding="UTF-8"?>
<svg xmlns="http://www.w3.org/2000/svg" xmlns:xlink="http://www.w3.org/1999/xlink" width="124px" height="40px" viewBox="0 0 123 40" version="1.1">
<g id="surface1">
<path style=" stroke:none;fill-rule:nonzero;fill:rgb(7.843138%,20.392157%,79.607844%);fill-opacity:1;" d="M 80.097656 0.0820312 C 71.371094 0.0820312 63.574219 4.605469 63.574219 12.964844 C 63.574219 22.554688 77.402344 23.214844 77.402344 28.035156 C 77.402344 30.0625 75.082031 31.875 71.113281 31.875 C 65.484375 31.875 61.273438 29.339844 61.273438 29.339844 L 59.472656 37.777344 C 59.472656 37.777344 64.320312 39.921875 70.757812 39.921875 C 80.296875 39.921875 87.800781 35.171875 87.800781 26.667969 C 87.800781 16.539062 73.917969 15.894531 73.917969 11.425781 C 73.917969 9.835938 75.824219 8.097656 79.777344 8.097656 C 84.242188 8.097656 87.882812 9.941406 87.882812 9.941406 L 89.644531 1.792969 C 89.644531 1.792969 85.683594 0.0820312 80.09375 0.0820312 Z M 0.273438 0.695312 L 0.0625 1.925781 C 0.0625 1.925781 3.730469 2.597656 7.039062 3.941406 C 11.296875 5.476562 11.597656 6.371094 12.316406 9.152344 L 20.125 39.285156 L 30.597656 39.285156 L 46.730469 0.695312 L 36.285156 0.695312 L 25.917969 26.933594 L 21.6875 4.691406 C 21.300781 2.148438 19.335938 0.695312 16.929688 0.695312 C 16.929688 0.695312 0.273438 0.695312 0.273438 0.695312 Z M 50.933594 0.695312 L 42.738281 39.285156 L 52.699219 39.285156 L 60.867188 0.695312 Z M 106.5 0.695312 C 104.097656 0.695312 102.824219 1.984375 101.890625 4.234375 L 87.292969 39.285156 L 97.742188 39.285156 L 99.761719 33.441406 L 112.492188 33.441406 L 113.71875 39.285156 L 122.9375 39.285156 L 114.898438 0.695312 Z M 107.859375 11.121094 L 110.957031 25.601562 L 102.660156 25.601562 Z M 107.859375 11.121094 "/>
</g>
</svg>
